<svg width="33" height="32" viewBox="0 0 33 32" fill="none" xmlns="http://www.w3.org/2000/svg">
<g id="Call">
<path id="Vector" d="M25.2609 1.92252C24.7634 1.95002 23.2034 1.99752 20.8284 3.11002C18.4534 4.22002 15.1934 6.38002 10.9534 10.62C6.71342 14.86 4.55092 18.1225 3.44092 20.4975C2.33092 22.87 2.28092 24.43 2.25342 24.9275V24.96C2.25342 25.535 2.54342 25.9275 2.87842 26.3675C3.21342 26.805 3.64092 27.2525 4.08842 27.6825C4.98592 28.5425 5.94592 29.3125 6.38592 29.625C7.39842 30.35 8.58592 30.18 9.12592 29.42C9.51342 28.88 12.4509 24.4175 12.8909 23.69C13.3384 23.0125 13.1584 22.2075 12.7509 21.46C12.4434 20.8975 11.5784 19.3925 11.3259 18.955C11.5459 18.62 12.3959 17.3725 15.0509 14.7175L15.0534 14.715V14.7125C17.7184 12.0025 18.9609 11.1925 19.2834 10.99C19.7109 11.235 21.1909 12.0875 21.7734 12.4075C22.4834 12.8325 23.3034 12.97 23.9859 12.58L23.9934 12.5775L23.9984 12.5725C24.3409 12.3675 25.6134 11.54 26.9184 10.6825C27.5709 10.255 28.2184 9.82752 28.7334 9.48752C29.2409 9.14752 29.5834 8.92002 29.7534 8.79252C30.5109 8.25252 30.6834 7.06752 29.9584 6.05252C29.6484 5.62002 28.8809 4.64252 28.0184 3.73752C27.5884 3.28502 27.1384 2.85502 26.6959 2.52002C26.2559 2.18752 25.8509 1.89252 25.2609 1.92252ZM25.3259 3.20002C25.2659 3.20252 25.5759 3.27752 25.9234 3.54002C26.2734 3.80502 26.6884 4.19752 27.0909 4.62002C27.8959 5.46502 28.6659 6.44752 28.9159 6.79752C29.3134 7.35252 29.0359 7.73252 29.0109 7.75002L29.0034 7.75752L28.9959 7.76002C28.9409 7.80502 28.5359 8.08002 28.0234 8.42002C27.5134 8.76002 26.8684 9.18752 26.2159 9.61252C24.9209 10.4625 23.5784 11.3325 23.3534 11.47H23.3509C23.2509 11.525 22.8409 11.5525 22.4309 11.3075L22.4209 11.3L22.4084 11.295C21.8234 10.975 19.5634 9.67752 19.5634 9.67752L19.2459 9.49502L18.9284 9.67752C18.9284 9.67752 17.2559 10.6475 14.1459 13.8125C14.1459 13.8125 14.1459 13.815 14.1434 13.815C14.1434 13.815 14.1434 13.815 14.1434 13.8175C11.0359 16.9225 10.0184 18.58 10.0184 18.58L9.82342 18.9025L10.0109 19.23C10.0109 19.23 11.3084 21.49 11.6259 22.075C11.8909 22.56 11.8209 22.9875 11.8234 22.98L11.8159 22.9925L11.8084 23.0075C11.5534 23.4325 8.25592 28.435 8.08342 28.6775C8.06592 28.7025 7.68342 28.98 7.13092 28.5825C6.78592 28.3375 5.81342 27.565 4.97342 26.76C4.55592 26.355 4.16342 25.9425 3.89592 25.59C3.63092 25.24 3.53842 24.925 3.53842 24.9625C3.56592 24.39 3.58092 23.2175 4.60092 21.04C5.63092 18.835 7.69842 15.685 11.8584 11.525C16.0184 7.36502 19.1659 5.29752 21.3709 4.26752C23.5759 3.23752 24.7584 3.23002 25.3259 3.20002Z" fill="white"/>
</g>
</svg>
