<svg width="33" height="32" viewBox="0 0 33 32" fill="none" xmlns="http://www.w3.org/2000/svg">
<g id="Location">
<path id="Vector" d="M16.6668 0.640015C11.0093 0.640015 6.42676 5.22251 6.42676 10.88C6.42676 15.5575 8.89676 20.585 11.3268 24.48C13.7568 28.375 16.1868 31.14 16.1868 31.14C16.3093 31.2775 16.4843 31.3575 16.6668 31.3575C16.8493 31.3575 17.0243 31.2775 17.1468 31.14C17.1468 31.14 19.5793 28.3175 22.0068 24.4C24.4343 20.4825 26.9068 15.4675 26.9068 10.88C26.9068 5.22251 22.3243 0.640015 16.6668 0.640015ZM16.6668 1.92001C21.6343 1.92001 25.6268 5.91251 25.6268 10.88C25.6268 14.9975 23.2993 19.8925 20.9268 23.72C18.9393 26.9275 17.2568 28.9925 16.6668 29.7C16.0718 28.9975 14.3893 26.9775 12.4068 23.8C10.0368 20 7.70676 15.0975 7.70676 10.88C7.70676 5.91251 11.6993 1.92001 16.6668 1.92001ZM16.6668 7.04001C14.1993 7.04001 12.1868 9.05251 12.1868 11.52C12.1868 13.9875 14.1993 16 16.6668 16C19.1343 16 21.1468 13.9875 21.1468 11.52C21.1468 9.05251 19.1343 7.04001 16.6668 7.04001ZM16.6668 8.32001C18.4418 8.32001 19.8668 9.74502 19.8668 11.52C19.8668 13.295 18.4418 14.72 16.6668 14.72C14.8918 14.72 13.4668 13.295 13.4668 11.52C13.4668 9.74502 14.8918 8.32001 16.6668 8.32001Z" fill="white"/>
</g>
</svg>
