<svg width="18" height="18" viewBox="0 0 18 18" fill="none" xmlns="http://www.w3.org/2000/svg">
<path d="M3.59994 1.44C2.41127 1.44 1.43994 2.41133 1.43994 3.6C1.43994 4.78867 2.41127 5.76 3.59994 5.76C4.78861 5.76 5.75994 4.78867 5.75994 3.6C5.75994 2.41133 4.78861 1.44 3.59994 1.44ZM8.99994 1.44C7.81127 1.44 6.83994 2.41133 6.83994 3.6C6.83994 4.78867 7.81127 5.76 8.99994 5.76C10.1886 5.76 11.1599 4.78867 11.1599 3.6C11.1599 2.41133 10.1886 1.44 8.99994 1.44ZM14.3999 1.44C13.2113 1.44 12.2399 2.41133 12.2399 3.6C12.2399 4.78867 13.2113 5.76 14.3999 5.76C15.5886 5.76 16.5599 4.78867 16.5599 3.6C16.5599 2.41133 15.5886 1.44 14.3999 1.44ZM3.59994 2.16C4.3995 2.16 5.03994 2.80045 5.03994 3.6C5.03994 4.39956 4.3995 5.04 3.59994 5.04C2.80039 5.04 2.15994 4.39956 2.15994 3.6C2.15994 2.80045 2.80039 2.16 3.59994 2.16ZM8.99994 2.16C9.7995 2.16 10.4399 2.80045 10.4399 3.6C10.4399 4.39956 9.7995 5.04 8.99994 5.04C8.20039 5.04 7.55994 4.39956 7.55994 3.6C7.55994 2.80045 8.20039 2.16 8.99994 2.16ZM14.3999 2.16C15.1995 2.16 15.8399 2.80045 15.8399 3.6C15.8399 4.39956 15.1995 5.04 14.3999 5.04C13.6004 5.04 12.9599 4.39956 12.9599 3.6C12.9599 2.80045 13.6004 2.16 14.3999 2.16ZM3.59994 6.84C2.41127 6.84 1.43994 7.81133 1.43994 9C1.43994 10.1887 2.41127 11.16 3.59994 11.16C4.78861 11.16 5.75994 10.1887 5.75994 9C5.75994 7.81133 4.78861 6.84 3.59994 6.84ZM8.99994 6.84C7.81127 6.84 6.83994 7.81133 6.83994 9C6.83994 10.1887 7.81127 11.16 8.99994 11.16C10.1886 11.16 11.1599 10.1887 11.1599 9C11.1599 7.81133 10.1886 6.84 8.99994 6.84ZM14.3999 6.84C13.2113 6.84 12.2399 7.81133 12.2399 9C12.2399 10.1887 13.2113 11.16 14.3999 11.16C15.5886 11.16 16.5599 10.1887 16.5599 9C16.5599 7.81133 15.5886 6.84 14.3999 6.84ZM3.59994 7.56C4.3995 7.56 5.03994 8.20045 5.03994 9C5.03994 9.79956 4.3995 10.44 3.59994 10.44C2.80039 10.44 2.15994 9.79956 2.15994 9C2.15994 8.20045 2.80039 7.56 3.59994 7.56ZM8.99994 7.56C9.7995 7.56 10.4399 8.20045 10.4399 9C10.4399 9.79956 9.7995 10.44 8.99994 10.44C8.20039 10.44 7.55994 9.79956 7.55994 9C7.55994 8.20045 8.20039 7.56 8.99994 7.56ZM14.3999 7.56C15.1995 7.56 15.8399 8.20045 15.8399 9C15.8399 9.79956 15.1995 10.44 14.3999 10.44C13.6004 10.44 12.9599 9.79956 12.9599 9C12.9599 8.20045 13.6004 7.56 14.3999 7.56ZM3.59994 12.24C2.41127 12.24 1.43994 13.2113 1.43994 14.4C1.43994 15.5887 2.41127 16.56 3.59994 16.56C4.78861 16.56 5.75994 15.5887 5.75994 14.4C5.75994 13.2113 4.78861 12.24 3.59994 12.24ZM8.99994 12.24C7.81127 12.24 6.83994 13.2113 6.83994 14.4C6.83994 15.5887 7.81127 16.56 8.99994 16.56C10.1886 16.56 11.1599 15.5887 11.1599 14.4C11.1599 13.2113 10.1886 12.24 8.99994 12.24ZM14.3999 12.24C13.2113 12.24 12.2399 13.2113 12.2399 14.4C12.2399 15.5887 13.2113 16.56 14.3999 16.56C15.5886 16.56 16.5599 15.5887 16.5599 14.4C16.5599 13.2113 15.5886 12.24 14.3999 12.24ZM3.59994 12.96C4.3995 12.96 5.03994 13.6004 5.03994 14.4C5.03994 15.1996 4.3995 15.84 3.59994 15.84C2.80039 15.84 2.15994 15.1996 2.15994 14.4C2.15994 13.6004 2.80039 12.96 3.59994 12.96ZM8.99994 12.96C9.7995 12.96 10.4399 13.6004 10.4399 14.4C10.4399 15.1996 9.7995 15.84 8.99994 15.84C8.20039 15.84 7.55994 15.1996 7.55994 14.4C7.55994 13.6004 8.20039 12.96 8.99994 12.96ZM14.3999 12.96C15.1995 12.96 15.8399 13.6004 15.8399 14.4C15.8399 15.1996 15.1995 15.84 14.3999 15.84C13.6004 15.84 12.9599 15.1996 12.9599 14.4C12.9599 13.6004 13.6004 12.96 14.3999 12.96Z" fill="#394BA4"/>
</svg>
