<svg width="18" height="18" viewBox="0 0 18 18" fill="none" xmlns="http://www.w3.org/2000/svg">
<path d="M8.99999 0.359985C5.81765 0.359985 3.23999 2.93764 3.23999 6.11999C3.23999 8.75108 4.62937 11.579 5.99624 13.77C7.36312 15.9609 8.72999 17.5162 8.72999 17.5162C8.7989 17.5936 8.89733 17.6386 8.99999 17.6386C9.10265 17.6386 9.20108 17.5936 9.26999 17.5162C9.26999 17.5162 10.6383 15.9286 12.0037 13.725C13.3692 11.5214 14.76 8.70045 14.76 6.11999C14.76 2.93764 12.1823 0.359985 8.99999 0.359985ZM8.99999 1.07999C11.7942 1.07999 14.04 3.32577 14.04 6.11999C14.04 8.43608 12.7308 11.1895 11.3962 13.3425C10.2783 15.1467 9.33187 16.3083 8.99999 16.7062C8.6653 16.3111 7.7189 15.1748 6.60374 13.3875C5.27062 11.25 3.95999 8.49233 3.95999 6.11999C3.95999 3.32577 6.20577 1.07999 8.99999 1.07999ZM8.99999 3.95999C7.61202 3.95999 6.47999 5.09202 6.47999 6.47999C6.47999 7.86795 7.61202 8.99998 8.99999 8.99998C10.388 8.99998 11.52 7.86795 11.52 6.47999C11.52 5.09202 10.388 3.95999 8.99999 3.95999ZM8.99999 4.67999C9.99843 4.67999 10.8 5.48155 10.8 6.47999C10.8 7.47842 9.99843 8.27999 8.99999 8.27999C8.00155 8.27999 7.19999 7.47842 7.19999 6.47999C7.19999 5.48155 8.00155 4.67999 8.99999 4.67999Z" fill="white"/>
</svg>
