<svg width="42" height="42" viewBox="0 0 42 42" fill="none" xmlns="http://www.w3.org/2000/svg">
<g id="Ok">
<path id="Vector" d="M21.0002 1.67999C10.3402 1.67999 1.68018 10.34 1.68018 21C1.68018 31.66 10.3402 40.32 21.0002 40.32C31.6602 40.32 40.3202 31.66 40.3202 21C40.3202 10.34 31.6602 1.67999 21.0002 1.67999ZM21.0002 3.35999C30.7522 3.35999 38.6402 11.248 38.6402 21C38.6402 30.752 30.7522 38.64 21.0002 38.64C11.2482 38.64 3.36018 30.752 3.36018 21C3.36018 11.248 11.2482 3.35999 21.0002 3.35999ZM29.3903 12.5901C29.2538 12.5928 29.12 12.6288 29.0006 12.6948C28.8811 12.7608 28.7795 12.855 28.7046 12.9691L20.1356 25.6003L14.0111 19.9172C13.9307 19.8398 13.8356 19.7792 13.7314 19.7389C13.6273 19.6987 13.5162 19.6796 13.4046 19.6828C13.293 19.686 13.1831 19.7114 13.0815 19.7575C12.9798 19.8037 12.8884 19.8696 12.8125 19.9515C12.7366 20.0334 12.6778 20.1296 12.6395 20.2345C12.6012 20.3393 12.5842 20.4508 12.5895 20.5623C12.5948 20.6738 12.6222 20.7832 12.6703 20.884C12.7183 20.9847 12.7859 21.0749 12.8692 21.1493L20.426 28.1613L30.0958 13.9109C30.1845 13.7838 30.2363 13.6346 30.2455 13.4799C30.2547 13.3252 30.2209 13.171 30.1479 13.0343C30.0749 12.8976 29.9655 12.7837 29.8318 12.7053C29.6981 12.627 29.5453 12.5871 29.3903 12.5901Z" fill="#394BA4"/>
</g>
</svg>
