<svg width="18" height="18" viewBox="0 0 18 18" fill="none" xmlns="http://www.w3.org/2000/svg">
<g id="Phone">
<path id="Vector" d="M4.26236 1.07579C3.98533 1.05329 3.67736 1.13345 3.39329 1.33313C3.14298 1.50751 2.60298 1.93641 2.09814 2.42157C1.84642 2.66345 1.60595 2.91516 1.42033 3.16266C1.23329 3.41016 1.07017 3.63657 1.08001 3.96563C1.08986 4.26095 1.11939 5.13423 1.74798 6.47298C2.37658 7.81032 3.59579 9.64548 5.97376 12.0249C8.35314 14.4042 10.1883 15.6234 11.5256 16.252C12.863 16.8806 13.7377 16.9102 14.033 16.92C14.3606 16.9299 14.587 16.7667 14.8345 16.5797C15.082 16.3927 15.3338 16.1536 15.5756 15.9019C16.0594 15.397 16.4883 14.857 16.6627 14.6067C17.0606 14.04 16.9945 13.3706 16.5516 13.0599C16.2731 12.8644 13.7124 11.16 13.327 10.9238C12.9361 10.6847 12.4861 10.793 12.0839 11.0053C11.7675 11.1727 10.9111 11.6634 10.6664 11.8041C10.4822 11.6874 9.78329 11.2219 8.28001 9.7186C6.77533 8.21532 6.31126 7.51641 6.19454 7.3322C6.33517 7.08751 6.82454 6.23532 6.9933 5.91329C7.20423 5.51251 7.32236 5.05829 7.07064 4.66454C6.96517 4.4972 6.48564 3.76735 6.00189 3.0347C5.51673 2.30204 5.05689 1.60735 4.93736 1.44141V1.44001C4.78126 1.22485 4.53798 1.09829 4.26236 1.07579ZM4.19626 1.81126C4.2947 1.82391 4.35376 1.86329 4.35376 1.86329C4.41142 1.94345 4.91626 2.70001 5.40001 3.43126C5.88376 4.16391 6.37736 4.91485 6.46314 5.05126C6.4772 5.07235 6.49689 5.31141 6.35626 5.5772V5.5786C6.19736 5.88095 5.45626 7.1761 5.45626 7.1761L5.35361 7.35751L5.45908 7.53751C5.45908 7.53751 6.01173 8.46985 7.76955 10.2277C9.52876 11.9855 10.4611 12.5395 10.4611 12.5395L10.6411 12.645L10.8225 12.5424C10.8225 12.5424 12.1149 11.8027 12.42 11.6424C12.6858 11.5031 12.9249 11.5214 12.953 11.5383C13.2019 11.6916 15.968 13.5295 16.1381 13.6491C16.1438 13.6533 16.2942 13.8811 16.0749 14.1933H16.0735C15.9413 14.3831 15.5081 14.933 15.0567 15.4027C14.8303 15.6375 14.5983 15.8569 14.4014 16.0045C14.2045 16.1522 14.0288 16.1986 14.0569 16.2C13.7503 16.1902 13.0739 16.1831 11.8322 15.5995C10.5905 15.0174 8.81861 13.8516 6.48283 11.5144C4.14845 9.18001 2.98267 7.40813 2.39908 6.16501C1.81689 4.92329 1.80986 4.24688 1.80001 3.94173C1.80142 3.96985 1.84783 3.79266 1.99548 3.59579C2.14314 3.39891 2.36111 3.16548 2.59595 2.93907C3.06704 2.48766 3.61548 2.05454 3.80533 1.92235V1.92376C3.96142 1.81407 4.09783 1.80001 4.19626 1.81126Z" fill="white"/>
</g>
</svg>
