<svg width="16" height="16" viewBox="0 0 16 16" fill="none" xmlns="http://www.w3.org/2000/svg">
<g id="Star" clip-path="url(#clip0_264_648)">
<path id="Vector" d="M3.26382 15.5518C3.19982 15.5518 3.13582 15.5198 3.07182 15.4878C2.97582 15.4238 2.91182 15.2638 2.94382 15.1358L4.35182 9.88782L0.127823 6.46382C-0.000176992 6.39982 -0.032177 6.23982 -0.000176998 6.11182C0.031823 5.98382 0.159823 5.88782 0.287823 5.88782L5.72782 5.59982L7.67982 0.511824C7.74382 0.415824 7.87182 0.319824 7.99982 0.319824C8.12782 0.319824 8.25582 0.415824 8.28782 0.511824L10.2398 5.59982L15.6798 5.88782C15.8078 5.88782 15.9358 5.98382 15.9678 6.11182C15.9998 6.23982 15.9678 6.36782 15.8718 6.46382L11.6478 9.88782L13.0558 15.1358C13.0878 15.2638 13.0558 15.3918 12.9278 15.4878C12.8318 15.5518 12.6718 15.5838 12.5758 15.4878L7.99982 12.5438L3.42382 15.4878C3.35982 15.5518 3.32782 15.5518 3.26382 15.5518Z" fill="#394BA4"/>
</g>
<defs>
<clipPath id="clip0_264_648">
<rect width="16" height="16" fill="white"/>
</clipPath>
</defs>
</svg>
