<svg width="56" height="64" viewBox="0 0 56 64" fill="none" xmlns="http://www.w3.org/2000/svg">
<path id="Vector" d="M4.36364 0C1.97095 0 0 1.97095 0 4.36364V59.6364C0 62.029 1.97095 64 4.36364 64H50.9091C53.3018 64 55.2727 62.029 55.2727 59.6364V4.36364C55.2727 1.97095 53.3018 0 50.9091 0H4.36364ZM4.36364 2.90909H50.9091C51.7309 2.90909 52.3636 3.54177 52.3636 4.36364V59.6364C52.3636 60.4582 51.7309 61.0909 50.9091 61.0909H4.36364C3.54177 61.0909 2.90909 60.4582 2.90909 59.6364V4.36364C2.90909 3.54177 3.54177 2.90909 4.36364 2.90909ZM36.3636 7.27273C35.5921 7.27273 34.8522 7.57922 34.3066 8.12478C33.761 8.67034 33.4545 9.41028 33.4545 10.1818C33.4545 10.9534 33.761 11.6933 34.3066 12.2389C34.8522 12.7844 35.5921 13.0909 36.3636 13.0909C37.1352 13.0909 37.8751 12.7844 38.4207 12.2389C38.9662 11.6933 39.2727 10.9534 39.2727 10.1818C39.2727 9.41028 38.9662 8.67034 38.4207 8.12478C37.8751 7.57922 37.1352 7.27273 36.3636 7.27273ZM45.0909 7.27273C44.3194 7.27273 43.5794 7.57922 43.0339 8.12478C42.4883 8.67034 42.1818 9.41028 42.1818 10.1818C42.1818 10.9534 42.4883 11.6933 43.0339 12.2389C43.5794 12.7844 44.3194 13.0909 45.0909 13.0909C45.8624 13.0909 46.6024 12.7844 47.1479 12.2389C47.6935 11.6933 48 10.9534 48 10.1818C48 9.41028 47.6935 8.67034 47.1479 8.12478C46.6024 7.57922 45.8624 7.27273 45.0909 7.27273ZM27.6364 17.4545C18.3093 17.4545 10.6879 24.8191 10.2273 34.0341C10.1816 34.217 10.172 34.4071 10.1989 34.5938C10.197 34.6998 10.1818 34.8026 10.1818 34.9091C10.1818 44.5316 18.0139 52.3636 27.6364 52.3636C37.2562 52.3636 45.0909 44.5319 45.0909 34.9091C45.0909 34.8035 45.0757 34.7017 45.0739 34.5966C45.1026 34.4053 45.093 34.2102 45.0455 34.0227C44.5862 24.9997 37.2241 17.841 28.1534 17.5597C27.9889 17.4934 27.8137 17.4578 27.6364 17.4545ZM27.6364 20.3636C34.5137 20.3636 40.2446 25.1128 41.7699 31.517C40.3307 30.8579 38.9634 30.572 37.8494 30.5483C35.7729 30.5046 34.1633 31.3979 32.6477 32.1165C31.1321 32.835 29.68 33.4545 27.6364 33.4545C25.5927 33.4545 24.1406 32.835 22.625 32.1165C21.1101 31.3983 19.5012 30.5056 17.4261 30.5483H17.4233C16.3079 30.5713 14.9416 30.8576 13.5028 31.517C15.0275 25.1126 20.7564 20.3636 27.6364 20.3636ZM17.483 33.4545C17.4839 33.4545 17.4848 33.4545 17.4858 33.4545C18.6616 33.4298 19.7909 33.992 21.3778 34.7443C22.9647 35.4967 24.9789 36.3636 27.6364 36.3636C30.2938 36.3636 32.308 35.4967 33.8949 34.7443C35.4818 33.992 36.6111 33.4298 37.7869 33.4545C38.7328 33.4747 40.4634 33.9034 42.1733 35.108C42.0661 43.0646 35.6163 49.4545 27.6364 49.4545C19.6533 49.4545 13.2066 43.0649 13.0994 35.108C14.8094 33.9031 16.5393 33.4737 17.483 33.4545Z" fill="black"/>
</svg>
